#!OML:ASF F:\VICON\USERDATA\INSTALL\rory3\rory3.ASF
:FULLY-SPECIFIED
:DEGREES
1572
root 19.7317 17.6935 -3.58262 -19.4883 -71.1128 39.2177
lowerback 16.264 2.25843 5.09628
upperback 7.53062 3.30012 10.2778
thorax -1.35366 1.30987 7.55705
lowerneck -5.95827 -11.6815 -9.12214
upperneck 31.3111 -17.818 4.15019
head 12.5827 -8.58554 0.734621
rclavicle 6.36111e-015 4.45278e-014
rhumerus 8.83882 -20.662 -91.2715
rradius 31.4321
rwrist -21.7675
rhand -19.2038 -27.1922
rfingers 7.12502
rthumb 7.10841 -57.0529
lclavicle 6.36111e-015 4.45278e-014
lhumerus -30.7211 -40.4819 100.577
lradius 79.3029
lwrist 79.1779
lhand -15.6328 57.7188
lfingers 7.12502
lthumb 10.5544 87.4338
rfemur -34.6503 -14.6841 2.99694
rtibia 42.4864
rfoot -27.8292 -20.2303
rtoes 1.35948
lfemur -30.3896 5.41726 -30.9418
ltibia 14.7164
lfoot 1.76298 0.508418
ltoes -17.6959
1573
root 19.7102 17.6738 -3.51642 -19.2147 -70.5519 38.7438
lowerback 16.1163 2.42515 5.78385
upperback 7.67625 3.57759 9.98975
thorax -1.08134 1.46972 6.79755
lowerneck -6.06755 -11.824 -8.64687
upperneck 31.2312 -18.1766 4.53048
head 12.5921 -8.63475 0.744254
rclavicle 1.04958e-013 6.36111e-014
rhumerus 8.8772 -20.0512 -92.7274
rradius 31.2787
rwrist -21.9737
rhand -19.0991 -27.1832
rfingers 7.12502
rthumb 7.20945 -57.0404
lclavicle 1.04958e-013 6.36111e-014
lhumerus -31.0143 -40.1681 99.4205
lradius 79.3632
lwrist 79.7786
lhand -17.0282 57.4688
lfingers 7.12502
lthumb 9.20816 87.2478
rfemur -33.9952 -14.6126 2.38228
rtibia 42.5961
rfoot -28.5029 -20.2688
rtoes 1.15299
lfemur -30.3361 5.84885 -31.5492
ltibia 15.2267
lfoot 1.2397 -0.625945
ltoes -17.6852
1574
root 19.6914 17.6627 -3.44522 -19.2231 -69.9526 38.3615
lowerback 16.3419 2.8304 5.59273
upperback 7.73808 4.09681 10.4175
thorax -1.21897 1.7106 7.28556
lowerneck -6.01187 -12.0686 -8.88967
upperneck 31.1116 -18.5023 4.63146
head 12.5992 -8.78397 0.771279
rclavicle 1.90833e-014 3.49861e-014
rhumerus 8.52205 -18.6151 -92.6933
rradius 31.2023
rwrist -22.7881
rhand -19.3212 -27.3273
rfingers 7.12502
rthumb 6.99508 -57.1917
lclavicle 1.90833e-014 3.49861e-014
lhumerus -31.5942 -39.5402 99.6183
lradius 79.394
lwrist 80.3054
lhand -19.1841 56.7494
lfingers 7.12502
lthumb 7.1274 86.6093
rfemur -33.0795 -14.5443 1.68884
rtibia 42.6369
rfoot -28.9682 -20.4272
rtoes 1.01593
lfemur -30.0347 6.26431 -32.1609
ltibia 15.6778
lfoot 0.801989 -1.70971
ltoes -16.8601
1575
root 19.6714 17.6514 -3.37559 -19.2018 -69.1364 38.0039
lowerback 16.5095 3.06841 5.33861
upperback 7.72474 4.39929 10.8006
thorax -1.39843 1.84812 7.79919
lowerneck -5.71635 -12.1728 -9.51029
upperneck 30.9662 -18.6792 5.02911
head 12.6156 -8.88773 0.998608
rclavicle 8.26944e-014 -2.8625e-014
rhumerus 8.18546 -17.1951 -92.8263
rradius 30.9266
rwrist -23.1485
rhand -19.2676 -27.4483
rfingers 7.12502
rthumb 7.04686 -57.311
lclavicle 8.26944e-014 -2.8625e-014
lhumerus -32.2512 -38.6264 99.7509
lradius 79.4345
lwrist 80.5158
lhand -20.9534 55.8105
lfingers 7.12502
lthumb 5.41937 85.7212
rfemur -32.1104 -14.6348 0.902958
rtibia 42.6305
rfoot -29.5915 -20.5422
rtoes 1.05137
lfemur -29.7583 6.43475 -32.8472
ltibia 16.1293
lfoot 0.366294 -2.78794
ltoes -16.7071
1576
root 19.6443 17.6356 -3.30644 -18.0982 -68.1812 36.6968
lowerback 16.3684 3.2967 5.63925
upperback 7.75891 4.72358 11.0105
thorax -1.30917 2.01223 7.80818
lowerneck -5.93831 -12.4936 -9.36017
upperneck 30.8948 -19.1867 5.22995
head 12.6851 -9.04824 0.953406
rclavicle -2.8625e-014 -1.17681e-013
rhumerus 8.44325 -16.8735 -93.5417
rradius 30.4119
rwrist -22.8519
rhand -19.0449 -27.3042
rfingers 7.12502
rthumb 7.26184 -57.1596
lclavicle -2.8625e-014 -1.17681e-013
lhumerus -32.5837 -38.256 99.3919
lradius 79.4504
lwrist 80.4274
lhand -19.1801 56.9088
lfingers 7.12502
lthumb 7.1313 86.7686
rfemur -31.2089 -15.1362 0.500489
rtibia 42.5943
rfoot -30.1927 -20.4949
rtoes 1.09284
lfemur -29.662 6.51489 -33.3121
ltibia 16.5584
lfoot -0.0398035 -3.97948
ltoes -17.0217
1577
root 19.6179 17.6187 -3.23636 -17.131 -67.1775 35.5446
lowerback 16.2256 3.52888 5.96652
upperback 7.80245 5.05479 11.1619
thorax -1.2009 2.18264 7.73734
lowerneck -6.44456 -12.9004 -8.87468
upperneck 30.9928 -19.7652 5.06587
head 12.8017 -9.2286 0.692065
rclavicle 2.8625e-014 -4.45278e-014
rhumerus 8.71694 -16.749 -94.3055
rradius 30.1521
rwrist -22.5038
rhand -18.6318 -27.1553
rfingers 7.12502
rthumb 7.66055 -56.9965
lclavicle 2.8625e-014 -4.45278e-014
lhumerus -32.8015 -38.0914 98.8808
lradius 79.551
lwrist 80.8124
lhand -18.2073 57.7652
lfingers 7.12502
lthumb 8.07028 87.5911
rfemur -30.2915 -15.6671 0.0367462
rtibia 42.5685
rfoot -30.7063 -20.4083
rtoes 1.4497
lfemur -29.5232 6.53855 -33.8116
ltibia 16.9302
lfoot -0.365033 -4.98926
ltoes -16.6808
1578
root 19.5974 17.6042 -3.16464 -16.882 -66.2079 35.0879
lowerback 16.2175 3.60117 5.61353
upperback 7.84999 5.097 11.6394
thorax -1.22361 2.1863 8.47375
lowerneck -6.59062 -12.9945 -9.4631
upperneck 30.9555 -19.7562 5.00015
head 12.8794 -9.28289 0.737164
rclavicle -4.77083e-014 -1.17681e-013
rhumerus 8.58001 -15.2497 -94.4594
rradius 30.0899
rwrist -22.6257
rhand -18.1754 -27.14
rfingers 7.12502
rthumb 8.10108 -56.9647
lclavicle -4.77083e-014 -1.17681e-013
lhumerus -33.1435 -36.611 98.9347
lradius 79.7591
lwrist 82.1207
lhand -19.0232 58.1756
lfingers 7.12502
lthumb 7.28273 88.0303
rfemur -29.3207 -15.8651 -0.752385
rtibia 42.5305
rfoot -31.5002 -20.1875
rtoes 2.98255
lfemur -29.2869 6.5998 -34.5275
ltibia 17.3009
lfoot -0.714805 -5.86632
ltoes -16.2373
1579
root 19.5786 17.5879 -3.08857 -16.6041 -65.268 34.6301
lowerback 16.2766 3.91846 5.39171
upperback 7.74897 5.51929 12.0465
thorax -1.47265 2.39027 8.97859
lowerneck -6.24671 -13.272 -9.68697
upperneck 30.5919 -20.1239 5.12075
head 12.7357 -9.464 0.787999
rclavicle 4.77083e-014 5.08889e-014
rhumerus 8.27125 -14.6698 -94.3897
rradius 30.1285
rwrist -22.81
rhand -17.5271 -27.3047
rfingers 7.12502
rthumb 8.72672 -57.1043
lclavicle 4.77083e-014 5.08889e-014
lhumerus -33.7942 -36.0028 99.2713
lradius 80.0492
lwrist 83.5832
lhand -20.8586 58.1587
lfingers 7.12502
lthumb 5.51087 88.0671
rfemur -28.3694 -16.0678 -1.50582
rtibia 42.4417
rfoot -32.2459 -19.9119
rtoes 4.41015
lfemur -29.0937 6.73889 -35.2535
ltibia 17.6811
lfoot -1.02303 -6.80672
ltoes -15.6511
1580
root 19.5574 17.5713 -3.01151 -16.502 -64.4787 34.2228
lowerback 16.4761 4.16891 5.26626
upperback 7.70018 5.87141 12.3834
thorax -1.72212 2.56062 9.35749
lowerneck -6.09524 -13.4224 -9.95547
upperneck 30.5117 -20.3039 5.14686
head 12.7265 -9.56755 0.817676
rclavicle 3.18055e-015 2.54444e-014
rhumerus 7.95752 -14.1263 -94.5077
rradius 30.1581
rwrist -22.7953
rhand -16.9035 -27.5098
rfingers 7.12502
rthumb 9.32845 -57.2834
lclavicle 3.18055e-015 2.54444e-014
lhumerus -34.3777 -35.2364 99.3626
lradius 80.1774
lwrist 83.9727
lhand -21.3125 58.0015
lfingers 7.12502
lthumb 5.07258 87.9208
rfemur -27.3089 -16.186 -2.18466
rtibia 42.2831
rfoot -32.7203 -19.7698
rtoes 4.8475
lfemur -28.7587 6.97491 -35.8659
ltibia 18.0681
lfoot -1.25304 -7.63543
ltoes -14.4419
1581
root 19.5353 17.5611 -2.93488 -16.3475 -63.7957 33.6579
lowerback 16.771 4.35225 5.29299
upperback 7.69469 6.15745 12.6273
thorax -1.94471 2.70004 9.5509
lowerneck -6.09965 -13.4999 -10.1065
upperneck 30.6398 -20.4133 5.15533
head 12.8119 -9.6202 0.81822
rclavicle 6.36111e-015 3.81667e-014
rhumerus 7.69379 -13.6122 -94.9181
rradius 30.1642
rwrist -22.6708
rhand -17.1403 -27.6565
rfingers 7.12502
rthumb 9.10001 -57.4402
lclavicle 6.36111e-015 3.81667e-014
lhumerus -34.8192 -34.2427 99.1335
lradius 80.0131
lwrist 83.2088
lhand -20.0919 58.0923
lfingers 7.12502
lthumb 6.25106 87.9801
rfemur -26.1414 -16.2293 -2.71631
rtibia 42.0327
rfoot -33.0533 -19.8108
rtoes 4.66096
lfemur -28.347 7.32211 -36.3255
ltibia 18.4986
lfoot -1.57927 -8.56936
ltoes -13.4573
1582
root 19.5126 17.5546 -2.86247 -15.7718 -63.0494 32.8242
lowerback 16.8142 4.45848 5.69063
upperback 7.67463 6.36631 12.6822
thorax -1.97692 2.81047 9.33834
lowerneck -5.92668 -13.6037 -10.2091
upperneck 30.542 -20.633 5.4622
head 12.8122 -9.69298 0.921484
rclavicle -3.18055e-014 -1.08139e-013
rhumerus 7.56645 -13.1285 -95.511
rradius 30.226
rwrist -22.8857
rhand -17.5717 -27.8897
rfingers 7.12502
rthumb 8.68369 -57.6911
lclavicle -3.18055e-014 -1.08139e-013
lhumerus -34.9651 -33.2987 98.39
lradius 79.5864
lwrist 81.376
lhand -20.2024 57.6011
lfingers 7.12502
lthumb 6.14439 87.492
rfemur -25.0787 -16.3314 -3.07898
rtibia 41.7091
rfoot -33.5357 -19.8278
rtoes 5.27059
lfemur -28.1423 7.53353 -36.6795
ltibia 18.9409
lfoot -1.95759 -9.56254
ltoes -13.1663
1583
root 19.4903 17.5548 -2.79948 -15.0061 -62.5059 31.8121
lowerback 16.8043 4.59877 6.46259
upperback 7.75678 6.64094 12.5291
thorax -1.80452 2.95925 8.669
lowerneck -5.7933 -13.7361 -9.96293
upperneck 30.2144 -20.9405 5.93044
head 12.7113 -9.75377 1.02483
rclavicle 8.5875e-014 8.5875e-014
rhumerus 7.72151 -12.8922 -96.4104
rradius 30.3503
rwrist -23.1477
rhand -17.5288 -27.9909
rfingers 7.12502
rthumb 8.72505 -57.7906
lclavicle 8.5875e-014 8.5875e-014
lhumerus -35.0032 -33.1015 97.4514
lradius 79.6421
lwrist 81.5455
lhand -21.2536 57.2161
lfingers 7.12502
lthumb 5.12948 87.134
rfemur -24.1287 -16.1078 -3.19136
rtibia 41.3704
rfoot -34.2293 -19.8418
rtoes 5.96262
lfemur -27.9828 7.68912 -36.7564
ltibia 19.3592
lfoot -2.17533 -10.1942
ltoes -12.3274
1584
root 19.4699 17.5558 -2.73968 -14.6624 -62.1682 31.0164
lowerback 17.1973 4.89367 6.93612
upperback 7.88343 7.12145 12.5229
thorax -1.8639 3.1998 8.27866
lowerneck -5.6826 -13.8913 -9.63408
upperneck 29.8736 -21.2302 6.21473
head 12.5734 -9.82081 1.05335
rclavicle 1.04958e-013 1.04958e-013
rhumerus 7.93563 -12.6708 -96.9725
rradius 30.3621
rwrist -23.1037
rhand -17.3273 -28.0093
rfingers 7.12502
rthumb 8.91951 -57.8008
lclavicle 1.04958e-013 1.04958e-013
lhumerus -35.0586 -32.9764 96.9291
lradius 79.6442
lwrist 81.1834
lhand -19.9901 57.6147
lfingers 7.12502
lthumb 6.34939 87.4995
rfemur -23.1179 -15.6714 -3.3186
rtibia 41.0851
rfoot -34.7318 -20.0031
rtoes 5.94742
lfemur -27.5871 8.02637 -36.7644
ltibia 19.7377
lfoot -2.34876 -10.6852
ltoes -11.1596
1585
root 19.4545 17.5469 -2.66395 -14.546 -61.5337 30.6641
lowerback 17.3479 5.12502 7.03861
upperback 7.89509 7.46604 12.5987
thorax -1.96182 3.37289 8.22657
lowerneck -5.50603 -14.0122 -9.46859
upperneck 29.6868 -21.418 6.2865
head 12.4686 -9.88482 1.04711
rclavicle -3.18055e-015 -4.45278e-014
rhumerus 7.99334 -12.3634 -97.1926
rradius 30.4664
rwrist -22.8512
rhand -16.9001 -28.2235
rfingers 7.12502
rthumb 9.33171 -57.997
lclavicle -3.18055e-015 -4.45278e-014
lhumerus -35.3026 -32.6199 96.7588
lradius 79.6414
lwrist 81.2178
lhand -17.5459 58.9544
lfingers 7.12502
lthumb 8.70856 88.7547
rfemur -22.2161 -15.7242 -3.80955
rtibia 40.8726
rfoot -34.9948 -20.0956
rtoes 5.9325
lfemur -27.2853 8.08925 -37.1556
ltibia 20.0613
lfoot -2.58938 -11.2258
ltoes -10.4201
